<svg xmlns="http://www.w3.org/2000/svg" width="2400" height="1350" viewBox="0 0 2400 1350" role="img" aria-label="Universal Structural Steel">
  <defs>
    <linearGradient id="gabouthero" x1="0" y1="0" x2="0.35" y2="1">
      <stop offset="0%" stop-color="#3b4c66"/>
      <stop offset="55%" stop-color="#1e293b"/>
      <stop offset="100%" stop-color="#0c111c"/>
    </linearGradient>
    <radialGradient id="vabouthero" cx="50%" cy="38%" r="78%">
      <stop offset="0%" stop-color="#fff" stop-opacity="0.14"/>
      <stop offset="100%" stop-color="#000" stop-opacity="0.5"/>
    </radialGradient>
    <pattern id="pabouthero" width="72" height="72" patternUnits="userSpaceOnUse">
      <path d="M72 0 L0 0 0 72" fill="none" stroke="rgba(255,255,255,.055)" stroke-width="1"/>
    </pattern>
    <filter id="nabouthero"><feTurbulence type="fractalNoise" baseFrequency="0.9" numOctaves="3"/><feColorMatrix type="saturate" values="0"/></filter>
  </defs>
  <rect width="2400" height="1350" fill="url(#gabouthero)"/>
  <rect width="2400" height="1350" fill="url(#pabouthero)"/>
  <line x1="408.7446704492904" y1="1107" x2="408.7446704492904" y2="563.1700684565585" stroke="rgba(255,255,255,.46)" stroke-width="3.5"/><line x1="271.4758988199569" y1="563.1700684565585" x2="837.7095817909576" y2="563.1700684565585" stroke="rgba(215,0,18,.62)" stroke-width="3"/><line x1="408.7446704492904" y1="533.1700684565585" x2="837.7095817909576" y2="563.1700684565585" stroke="rgba(255,255,255,.26)" stroke-width="1.3"/><line x1="408.7446704492904" y1="533.1700684565585" x2="271.4758988199569" y2="563.1700684565585" stroke="rgba(255,255,255,.26)" stroke-width="1.3"/><line x1="408.7446704492904" y1="563.1700684565585" x2="408.7446704492904" y2="533.1700684565585" stroke="rgba(255,255,255,.4)" stroke-width="2"/><line x1="717.5994066152908" y1="563.1700684565585" x2="717.5994066152908" y2="821.750896186335" stroke="rgba(255,255,255,.3)" stroke-width="1.1"/><line x1="1110.622015396133" y1="1107" x2="1110.622015396133" y2="599.9852146252524" stroke="rgba(255,255,255,.46)" stroke-width="3.5"/><line x1="963.9794019088894" y1="599.9852146252524" x2="1568.8801825437695" y2="599.9852146252524" stroke="rgba(215,0,18,.62)" stroke-width="3"/><line x1="1110.622015396133" y1="569.9852146252524" x2="1568.8801825437695" y2="599.9852146252524" stroke="rgba(255,255,255,.26)" stroke-width="1.3"/><line x1="1110.622015396133" y1="569.9852146252524" x2="963.9794019088894" y2="599.9852146252524" stroke="rgba(255,255,255,.26)" stroke-width="1.3"/><line x1="1110.622015396133" y1="599.9852146252524" x2="1110.622015396133" y2="569.9852146252524" stroke="rgba(255,255,255,.4)" stroke-width="2"/><line x1="1440.5678957424313" y1="599.9852146252524" x2="1440.5678957424313" y2="932.5959852479864" stroke="rgba(255,255,255,.3)" stroke-width="1.1"/><line x1="1835.4572253241204" y1="1107" x2="1835.4572253241204" y2="408.57996090548113" stroke="rgba(255,255,255,.46)" stroke-width="3.5"/><line x1="1696.4336355127953" y1="408.57996090548113" x2="2269.905943484511" y2="408.57996090548113" stroke="rgba(215,0,18,.62)" stroke-width="3"/><line x1="1835.4572253241204" y1="378.57996090548113" x2="2269.905943484511" y2="408.57996090548113" stroke="rgba(255,255,255,.26)" stroke-width="1.3"/><line x1="1835.4572253241204" y1="378.57996090548113" x2="1696.4336355127953" y2="408.57996090548113" stroke="rgba(255,255,255,.26)" stroke-width="1.3"/><line x1="1835.4572253241204" y1="408.57996090548113" x2="1835.4572253241204" y2="378.57996090548113" stroke="rgba(255,255,255,.4)" stroke-width="2"/><line x1="2148.2603023996016" y1="408.57996090548113" x2="2148.2603023996016" y2="699.054044092074" stroke="rgba(255,255,255,.3)" stroke-width="1.1"/><line x1="0" y1="1107" x2="2400" y2="1107" stroke="rgba(255,255,255,.5)" stroke-width="2.5"/>
  <rect width="2400" height="1350" fill="url(#vabouthero)"/>
  <rect width="2400" height="1350" filter="url(#nabouthero)" opacity="0.045"/>
  
</svg>