<svg xmlns="http://www.w3.org/2000/svg" width="1200" height="900" viewBox="0 0 1200 900" role="img" aria-label="1983">
  <defs>
    <linearGradient id="ghist1983" x1="0" y1="0" x2="0.35" y2="1">
      <stop offset="0%" stop-color="#0f4c81"/>
      <stop offset="55%" stop-color="#0a3459"/>
      <stop offset="100%" stop-color="#04121e"/>
    </linearGradient>
    <radialGradient id="vhist1983" cx="50%" cy="38%" r="78%">
      <stop offset="0%" stop-color="#fff" stop-opacity="0.14"/>
      <stop offset="100%" stop-color="#000" stop-opacity="0.5"/>
    </radialGradient>
    <pattern id="phist1983" width="72" height="72" patternUnits="userSpaceOnUse">
      <path d="M72 0 L0 0 0 72" fill="none" stroke="rgba(255,255,255,.055)" stroke-width="1"/>
    </pattern>
    <filter id="nhist1983"><feTurbulence type="fractalNoise" baseFrequency="0.9" numOctaves="3"/><feColorMatrix type="saturate" values="0"/></filter>
  </defs>
  <rect width="1200" height="900" fill="url(#ghist1983)"/>
  <rect width="1200" height="900" fill="url(#phist1983)"/>
  <line x1="360" y1="121.26622263528405" x2="360" y2="612" stroke="rgba(255,255,255,.5)" stroke-width="3"/><line x1="334" y1="265.26622263528407" x2="386" y2="265.26622263528407" stroke="rgba(255,255,255,.32)" stroke-width="3"/><line x1="360" y1="144.16713224563745" x2="328" y2="612" stroke="rgba(245,158,11,.4)" stroke-width="1.1"/><line x1="360" y1="144.16713224563745" x2="392" y2="612" stroke="rgba(245,158,11,.4)" stroke-width="1.1"/><line x1="360" y1="167.06804185599088" x2="296" y2="612" stroke="rgba(245,158,11,.4)" stroke-width="1.1"/><line x1="360" y1="167.06804185599088" x2="424" y2="612" stroke="rgba(245,158,11,.4)" stroke-width="1.1"/><line x1="360" y1="189.96895146634427" x2="264" y2="612" stroke="rgba(245,158,11,.4)" stroke-width="1.1"/><line x1="360" y1="189.96895146634427" x2="456" y2="612" stroke="rgba(245,158,11,.4)" stroke-width="1.1"/><line x1="360" y1="212.8698610766977" x2="232.00000000000003" y2="612" stroke="rgba(245,158,11,.4)" stroke-width="1.1"/><line x1="360" y1="212.8698610766977" x2="488" y2="612" stroke="rgba(245,158,11,.4)" stroke-width="1.1"/><line x1="360" y1="235.77077068705108" x2="200" y2="612" stroke="rgba(245,158,11,.4)" stroke-width="1.1"/><line x1="360" y1="235.77077068705108" x2="520" y2="612" stroke="rgba(245,158,11,.4)" stroke-width="1.1"/><line x1="360" y1="258.6716802974045" x2="168" y2="612" stroke="rgba(245,158,11,.4)" stroke-width="1.1"/><line x1="360" y1="258.6716802974045" x2="552" y2="612" stroke="rgba(245,158,11,.4)" stroke-width="1.1"/><line x1="360" y1="281.5725899077579" x2="136" y2="612" stroke="rgba(245,158,11,.4)" stroke-width="1.1"/><line x1="360" y1="281.5725899077579" x2="584" y2="612" stroke="rgba(245,158,11,.4)" stroke-width="1.1"/><line x1="360" y1="304.47349951811134" x2="104.00000000000006" y2="612" stroke="rgba(245,158,11,.4)" stroke-width="1.1"/><line x1="360" y1="304.47349951811134" x2="616" y2="612" stroke="rgba(245,158,11,.4)" stroke-width="1.1"/><line x1="360" y1="327.3744091284647" x2="72" y2="612" stroke="rgba(245,158,11,.4)" stroke-width="1.1"/><line x1="360" y1="327.3744091284647" x2="648" y2="612" stroke="rgba(245,158,11,.4)" stroke-width="1.1"/><line x1="864" y1="139.9105120897293" x2="864" y2="612" stroke="rgba(255,255,255,.5)" stroke-width="3"/><line x1="838" y1="283.9105120897293" x2="890" y2="283.9105120897293" stroke="rgba(255,255,255,.32)" stroke-width="3"/><line x1="864" y1="161.9413548588753" x2="832" y2="612" stroke="rgba(245,158,11,.4)" stroke-width="1.1"/><line x1="864" y1="161.9413548588753" x2="896" y2="612" stroke="rgba(245,158,11,.4)" stroke-width="1.1"/><line x1="864" y1="183.97219762802123" x2="800" y2="612" stroke="rgba(245,158,11,.4)" stroke-width="1.1"/><line x1="864" y1="183.97219762802123" x2="928" y2="612" stroke="rgba(245,158,11,.4)" stroke-width="1.1"/><line x1="864" y1="206.00304039716718" x2="768" y2="612" stroke="rgba(245,158,11,.4)" stroke-width="1.1"/><line x1="864" y1="206.00304039716718" x2="960" y2="612" stroke="rgba(245,158,11,.4)" stroke-width="1.1"/><line x1="864" y1="228.03388316631316" x2="736" y2="612" stroke="rgba(245,158,11,.4)" stroke-width="1.1"/><line x1="864" y1="228.03388316631316" x2="992" y2="612" stroke="rgba(245,158,11,.4)" stroke-width="1.1"/><line x1="864" y1="250.06472593545914" x2="704" y2="612" stroke="rgba(245,158,11,.4)" stroke-width="1.1"/><line x1="864" y1="250.06472593545914" x2="1024" y2="612" stroke="rgba(245,158,11,.4)" stroke-width="1.1"/><line x1="864" y1="272.09556870460506" x2="672" y2="612" stroke="rgba(245,158,11,.4)" stroke-width="1.1"/><line x1="864" y1="272.09556870460506" x2="1056" y2="612" stroke="rgba(245,158,11,.4)" stroke-width="1.1"/><line x1="864" y1="294.1264114737511" x2="640" y2="612" stroke="rgba(245,158,11,.4)" stroke-width="1.1"/><line x1="864" y1="294.1264114737511" x2="1088" y2="612" stroke="rgba(245,158,11,.4)" stroke-width="1.1"/><line x1="864" y1="316.157254242897" x2="608" y2="612" stroke="rgba(245,158,11,.4)" stroke-width="1.1"/><line x1="864" y1="316.157254242897" x2="1120" y2="612" stroke="rgba(245,158,11,.4)" stroke-width="1.1"/><line x1="864" y1="338.188097012043" x2="576" y2="612" stroke="rgba(245,158,11,.4)" stroke-width="1.1"/><line x1="864" y1="338.188097012043" x2="1152" y2="612" stroke="rgba(245,158,11,.4)" stroke-width="1.1"/><line x1="0" y1="612" x2="1200" y2="612" stroke="rgba(255,255,255,.72)" stroke-width="4"/><line x1="0" y1="625" x2="1200" y2="625" stroke="rgba(255,255,255,.24)" stroke-width="2"/>
  <rect width="1200" height="900" fill="url(#vhist1983)"/>
  <rect width="1200" height="900" filter="url(#nhist1983)" opacity="0.045"/>
  <g font-family="Manrope, ui-sans-serif, system-ui, sans-serif">
    <rect x="66" y="804.5" width="4" height="46" fill="#F59E0B"/>
    <text x="84" y="826.5" fill="#ffffff" font-size="23" font-weight="700" letter-spacing="0.5">1983</text>
    <text x="84" y="846.5" fill="rgba(255,255,255,.62)" font-size="14" font-weight="600" letter-spacing="2.4">MILESTONE</text>
  </g>
</svg>