<svg xmlns="http://www.w3.org/2000/svg" width="1200" height="1500" viewBox="0 0 1200 1500" role="img" aria-label="Our mission">
  <defs>
    <linearGradient id="gmission" x1="0" y1="0" x2="0.35" y2="1">
      <stop offset="0%" stop-color="#0f4c81"/>
      <stop offset="55%" stop-color="#0a3459"/>
      <stop offset="100%" stop-color="#04121e"/>
    </linearGradient>
    <radialGradient id="vmission" cx="50%" cy="38%" r="78%">
      <stop offset="0%" stop-color="#fff" stop-opacity="0.14"/>
      <stop offset="100%" stop-color="#000" stop-opacity="0.5"/>
    </radialGradient>
    <pattern id="pmission" width="72" height="72" patternUnits="userSpaceOnUse">
      <path d="M72 0 L0 0 0 72" fill="none" stroke="rgba(255,255,255,.055)" stroke-width="1"/>
    </pattern>
    <filter id="nmission"><feTurbulence type="fractalNoise" baseFrequency="0.9" numOctaves="3"/><feColorMatrix type="saturate" values="0"/></filter>
  </defs>
  <rect width="1200" height="1500" fill="url(#gmission)"/>
  <rect width="1200" height="1500" fill="url(#pmission)"/>
  <line x1="360" y1="237.9963869601488" x2="360" y2="1020.0000000000001" stroke="rgba(255,255,255,.5)" stroke-width="3"/><line x1="334" y1="477.9963869601488" x2="386" y2="477.9963869601488" stroke="rgba(255,255,255,.32)" stroke-width="3"/><line x1="360" y1="274.48988890200854" x2="328" y2="1020.0000000000001" stroke="rgba(245,158,11,.4)" stroke-width="1.1"/><line x1="360" y1="274.48988890200854" x2="392" y2="1020.0000000000001" stroke="rgba(245,158,11,.4)" stroke-width="1.1"/><line x1="360" y1="310.9833908438683" x2="296" y2="1020.0000000000001" stroke="rgba(245,158,11,.4)" stroke-width="1.1"/><line x1="360" y1="310.9833908438683" x2="424" y2="1020.0000000000001" stroke="rgba(245,158,11,.4)" stroke-width="1.1"/><line x1="360" y1="347.47689278572796" x2="264" y2="1020.0000000000001" stroke="rgba(245,158,11,.4)" stroke-width="1.1"/><line x1="360" y1="347.47689278572796" x2="456" y2="1020.0000000000001" stroke="rgba(245,158,11,.4)" stroke-width="1.1"/><line x1="360" y1="383.97039472758775" x2="232.00000000000003" y2="1020.0000000000001" stroke="rgba(245,158,11,.4)" stroke-width="1.1"/><line x1="360" y1="383.97039472758775" x2="488" y2="1020.0000000000001" stroke="rgba(245,158,11,.4)" stroke-width="1.1"/><line x1="360" y1="420.4638966694474" x2="200" y2="1020.0000000000001" stroke="rgba(245,158,11,.4)" stroke-width="1.1"/><line x1="360" y1="420.4638966694474" x2="520" y2="1020.0000000000001" stroke="rgba(245,158,11,.4)" stroke-width="1.1"/><line x1="360" y1="456.9573986113071" x2="168" y2="1020.0000000000001" stroke="rgba(245,158,11,.4)" stroke-width="1.1"/><line x1="360" y1="456.9573986113071" x2="552" y2="1020.0000000000001" stroke="rgba(245,158,11,.4)" stroke-width="1.1"/><line x1="360" y1="493.4509005531669" x2="136" y2="1020.0000000000001" stroke="rgba(245,158,11,.4)" stroke-width="1.1"/><line x1="360" y1="493.4509005531669" x2="584" y2="1020.0000000000001" stroke="rgba(245,158,11,.4)" stroke-width="1.1"/><line x1="360" y1="529.9444024950267" x2="104.00000000000006" y2="1020.0000000000001" stroke="rgba(245,158,11,.4)" stroke-width="1.1"/><line x1="360" y1="529.9444024950267" x2="616" y2="1020.0000000000001" stroke="rgba(245,158,11,.4)" stroke-width="1.1"/><line x1="360" y1="566.4379044368864" x2="72" y2="1020.0000000000001" stroke="rgba(245,158,11,.4)" stroke-width="1.1"/><line x1="360" y1="566.4379044368864" x2="648" y2="1020.0000000000001" stroke="rgba(245,158,11,.4)" stroke-width="1.1"/><line x1="864" y1="209.07258808147165" x2="864" y2="1020.0000000000001" stroke="rgba(255,255,255,.5)" stroke-width="3"/><line x1="838" y1="449.0725880814716" x2="890" y2="449.0725880814716" stroke="rgba(255,255,255,.32)" stroke-width="3"/><line x1="864" y1="246.9158673043363" x2="832" y2="1020.0000000000001" stroke="rgba(245,158,11,.4)" stroke-width="1.1"/><line x1="864" y1="246.9158673043363" x2="896" y2="1020.0000000000001" stroke="rgba(245,158,11,.4)" stroke-width="1.1"/><line x1="864" y1="284.759146527201" x2="800" y2="1020.0000000000001" stroke="rgba(245,158,11,.4)" stroke-width="1.1"/><line x1="864" y1="284.759146527201" x2="928" y2="1020.0000000000001" stroke="rgba(245,158,11,.4)" stroke-width="1.1"/><line x1="864" y1="322.6024257500656" x2="768" y2="1020.0000000000001" stroke="rgba(245,158,11,.4)" stroke-width="1.1"/><line x1="864" y1="322.6024257500656" x2="960" y2="1020.0000000000001" stroke="rgba(245,158,11,.4)" stroke-width="1.1"/><line x1="864" y1="360.4457049729303" x2="736" y2="1020.0000000000001" stroke="rgba(245,158,11,.4)" stroke-width="1.1"/><line x1="864" y1="360.4457049729303" x2="992" y2="1020.0000000000001" stroke="rgba(245,158,11,.4)" stroke-width="1.1"/><line x1="864" y1="398.28898419579497" x2="704" y2="1020.0000000000001" stroke="rgba(245,158,11,.4)" stroke-width="1.1"/><line x1="864" y1="398.28898419579497" x2="1024" y2="1020.0000000000001" stroke="rgba(245,158,11,.4)" stroke-width="1.1"/><line x1="864" y1="436.1322634186596" x2="672" y2="1020.0000000000001" stroke="rgba(245,158,11,.4)" stroke-width="1.1"/><line x1="864" y1="436.1322634186596" x2="1056" y2="1020.0000000000001" stroke="rgba(245,158,11,.4)" stroke-width="1.1"/><line x1="864" y1="473.97554264152427" x2="640" y2="1020.0000000000001" stroke="rgba(245,158,11,.4)" stroke-width="1.1"/><line x1="864" y1="473.97554264152427" x2="1088" y2="1020.0000000000001" stroke="rgba(245,158,11,.4)" stroke-width="1.1"/><line x1="864" y1="511.81882186438895" x2="608" y2="1020.0000000000001" stroke="rgba(245,158,11,.4)" stroke-width="1.1"/><line x1="864" y1="511.81882186438895" x2="1120" y2="1020.0000000000001" stroke="rgba(245,158,11,.4)" stroke-width="1.1"/><line x1="864" y1="549.6621010872536" x2="576" y2="1020.0000000000001" stroke="rgba(245,158,11,.4)" stroke-width="1.1"/><line x1="864" y1="549.6621010872536" x2="1152" y2="1020.0000000000001" stroke="rgba(245,158,11,.4)" stroke-width="1.1"/><line x1="0" y1="1020.0000000000001" x2="1200" y2="1020.0000000000001" stroke="rgba(255,255,255,.72)" stroke-width="4"/><line x1="0" y1="1033" x2="1200" y2="1033" stroke="rgba(255,255,255,.24)" stroke-width="2"/>
  <rect width="1200" height="1500" fill="url(#vmission)"/>
  <rect width="1200" height="1500" filter="url(#nmission)" opacity="0.045"/>
  <g font-family="Manrope, ui-sans-serif, system-ui, sans-serif">
    <rect x="66" y="1371.5" width="4" height="46" fill="#F59E0B"/>
    <text x="84" y="1393.5" fill="#ffffff" font-size="23" font-weight="700" letter-spacing="0.5">Our mission</text>
    
  </g>
</svg>