<svg xmlns="http://www.w3.org/2000/svg" width="1600" height="1067" viewBox="0 0 1600 1067" role="img" aria-label="Meridian Construct">
  <defs>
    <linearGradient id="gdhakametro01" x1="0" y1="0" x2="0.35" y2="1">
      <stop offset="0%" stop-color="#123f63"/>
      <stop offset="55%" stop-color="#0a2a45"/>
      <stop offset="100%" stop-color="#050d16"/>
    </linearGradient>
    <radialGradient id="vdhakametro01" cx="50%" cy="38%" r="78%">
      <stop offset="0%" stop-color="#fff" stop-opacity="0.14"/>
      <stop offset="100%" stop-color="#000" stop-opacity="0.5"/>
    </radialGradient>
    <pattern id="pdhakametro01" width="72" height="72" patternUnits="userSpaceOnUse">
      <path d="M72 0 L0 0 0 72" fill="none" stroke="rgba(255,255,255,.055)" stroke-width="1"/>
    </pattern>
    <filter id="ndhakametro01"><feTurbulence type="fractalNoise" baseFrequency="0.9" numOctaves="3"/><feColorMatrix type="saturate" values="0"/></filter>
  </defs>
  <rect width="1600" height="1067" fill="url(#gdhakametro01)"/>
  <rect width="1600" height="1067" fill="url(#pdhakametro01)"/>
  <circle cx="800" cy="618.86" r="490.82" fill="none" stroke="rgba(255,255,255,0.10)" stroke-width="1.0"/><circle cx="800" cy="618.86" r="429.46750000000003" fill="none" stroke="rgba(255,255,255,0.15)" stroke-width="1.3"/><circle cx="800" cy="618.86" r="368.115" fill="none" stroke="rgba(255,255,255,0.21)" stroke-width="1.6"/><circle cx="800" cy="618.86" r="306.7625" fill="none" stroke="rgba(255,255,255,0.26)" stroke-width="1.9"/><circle cx="800" cy="618.86" r="245.41" fill="none" stroke="rgba(255,255,255,0.31)" stroke-width="2.2"/><circle cx="800" cy="618.86" r="184.0575" fill="none" stroke="rgba(255,255,255,0.36)" stroke-width="2.5"/><circle cx="800" cy="618.86" r="122.705" fill="none" stroke="rgba(255,255,255,0.42)" stroke-width="2.8"/><circle cx="800" cy="618.86" r="61.3525" fill="none" stroke="rgba(255,255,255,0.47)" stroke-width="3.1"/><line x1="1013.3128919704225" y1="624.9567302068314" x2="1290.6196515319716" y2="632.8824794757121" stroke="rgba(245,158,11,.34)" stroke-width="1.2"/><line x1="980.2927695297468" y1="733.0268833563114" x2="1214.6733699184176" y2="881.4438317195161" stroke="rgba(245,158,11,.34)" stroke-width="1.2"/><line x1="890.5467027703446" y1="812.0978188073414" x2="1008.2574163717927" y2="1063.306983256885" stroke="rgba(245,158,11,.34)" stroke-width="1.2"/><line x1="790.8170034436595" y1="832.0623277880574" x2="778.8791079204168" y2="1109.2253539125318" stroke="rgba(245,158,11,.34)" stroke-width="1.2"/><line x1="676.2808629368684" y1="792.7367814412094" x2="515.4459847547973" y2="1018.7765973147814" stroke="rgba(245,158,11,.34)" stroke-width="1.2"/><line x1="606.1869857573462" y1="708.1688769953853" x2="354.23006724189617" y2="824.2704170893862" stroke="rgba(245,158,11,.34)" stroke-width="1.2"/><line x1="586.65863366163" y1="613.8578595704037" x2="309.31485742174897" y2="607.3550770119284" stroke="rgba(245,158,11,.34)" stroke-width="1.2"/><line x1="625.131074280988" y1="496.54720909946235" x2="397.8014708462723" y2="337.54058092876335" stroke="rgba(245,158,11,.34)" stroke-width="1.2"/><line x1="695.6626043502629" y1="432.70611777072656" x2="560.0239900056047" y2="190.70607087267103" stroke="rgba(245,158,11,.34)" stroke-width="1.2"/><line x1="809.7901518308498" y1="405.6846896868005" x2="822.5173492109545" y2="128.55678627964113" stroke="rgba(245,158,11,.34)" stroke-width="1.2"/><line x1="908.8353621029804" y1="435.2995904452348" x2="1050.321332836855" y2="196.67105802404" stroke="rgba(245,158,11,.34)" stroke-width="1.2"/><line x1="989.1920028742256" y1="520.1384418253084" x2="1235.1416066107188" y2="391.8004161982094" stroke="rgba(245,158,11,.34)" stroke-width="1.2"/><circle cx="800" cy="618.86" r="80.02499999999999" fill="rgba(245,158,11,.5)"/>
  <rect width="1600" height="1067" fill="url(#vdhakametro01)"/>
  <rect width="1600" height="1067" filter="url(#ndhakametro01)" opacity="0.045"/>
  
</svg>