<svg xmlns="http://www.w3.org/2000/svg" width="1600" height="1067" viewBox="0 0 1600 1067" role="img" aria-label="Meridian Construct">
  <defs>
    <linearGradient id="gmeghnaestuary01" x1="0" y1="0" x2="0.35" y2="1">
      <stop offset="0%" stop-color="#0f4c81"/>
      <stop offset="55%" stop-color="#0a3459"/>
      <stop offset="100%" stop-color="#04121e"/>
    </linearGradient>
    <radialGradient id="vmeghnaestuary01" cx="50%" cy="38%" r="78%">
      <stop offset="0%" stop-color="#fff" stop-opacity="0.14"/>
      <stop offset="100%" stop-color="#000" stop-opacity="0.5"/>
    </radialGradient>
    <pattern id="pmeghnaestuary01" width="72" height="72" patternUnits="userSpaceOnUse">
      <path d="M72 0 L0 0 0 72" fill="none" stroke="rgba(255,255,255,.055)" stroke-width="1"/>
    </pattern>
    <filter id="nmeghnaestuary01"><feTurbulence type="fractalNoise" baseFrequency="0.9" numOctaves="3"/><feColorMatrix type="saturate" values="0"/></filter>
  </defs>
  <rect width="1600" height="1067" fill="url(#gmeghnaestuary01)"/>
  <rect width="1600" height="1067" fill="url(#pmeghnaestuary01)"/>
  <line x1="480" y1="162.71907478971409" x2="480" y2="725.5600000000001" stroke="rgba(255,255,255,.5)" stroke-width="3"/><line x1="454" y1="333.4390747897141" x2="506" y2="333.4390747897141" stroke="rgba(255,255,255,.32)" stroke-width="3"/><line x1="480" y1="188.98498463286074" x2="437.3333333333333" y2="725.5600000000001" stroke="rgba(245,158,11,.4)" stroke-width="1.1"/><line x1="480" y1="188.98498463286074" x2="522.6666666666666" y2="725.5600000000001" stroke="rgba(245,158,11,.4)" stroke-width="1.1"/><line x1="480" y1="215.25089447600743" x2="394.6666666666667" y2="725.5600000000001" stroke="rgba(245,158,11,.4)" stroke-width="1.1"/><line x1="480" y1="215.25089447600743" x2="565.3333333333334" y2="725.5600000000001" stroke="rgba(245,158,11,.4)" stroke-width="1.1"/><line x1="480" y1="241.51680431915412" x2="352" y2="725.5600000000001" stroke="rgba(245,158,11,.4)" stroke-width="1.1"/><line x1="480" y1="241.51680431915412" x2="608" y2="725.5600000000001" stroke="rgba(245,158,11,.4)" stroke-width="1.1"/><line x1="480" y1="267.78271416230075" x2="309.33333333333337" y2="725.5600000000001" stroke="rgba(245,158,11,.4)" stroke-width="1.1"/><line x1="480" y1="267.78271416230075" x2="650.6666666666666" y2="725.5600000000001" stroke="rgba(245,158,11,.4)" stroke-width="1.1"/><line x1="480" y1="294.04862400544744" x2="266.66666666666663" y2="725.5600000000001" stroke="rgba(245,158,11,.4)" stroke-width="1.1"/><line x1="480" y1="294.04862400544744" x2="693.3333333333334" y2="725.5600000000001" stroke="rgba(245,158,11,.4)" stroke-width="1.1"/><line x1="480" y1="320.3145338485941" x2="224.00000000000006" y2="725.5600000000001" stroke="rgba(245,158,11,.4)" stroke-width="1.1"/><line x1="480" y1="320.3145338485941" x2="736" y2="725.5600000000001" stroke="rgba(245,158,11,.4)" stroke-width="1.1"/><line x1="480" y1="346.5804436917408" x2="181.33333333333331" y2="725.5600000000001" stroke="rgba(245,158,11,.4)" stroke-width="1.1"/><line x1="480" y1="346.5804436917408" x2="778.6666666666667" y2="725.5600000000001" stroke="rgba(245,158,11,.4)" stroke-width="1.1"/><line x1="480" y1="372.8463535348875" x2="138.66666666666669" y2="725.5600000000001" stroke="rgba(245,158,11,.4)" stroke-width="1.1"/><line x1="480" y1="372.8463535348875" x2="821.3333333333333" y2="725.5600000000001" stroke="rgba(245,158,11,.4)" stroke-width="1.1"/><line x1="480" y1="399.1122633780342" x2="96" y2="725.5600000000001" stroke="rgba(245,158,11,.4)" stroke-width="1.1"/><line x1="480" y1="399.1122633780342" x2="864" y2="725.5600000000001" stroke="rgba(245,158,11,.4)" stroke-width="1.1"/><line x1="1152" y1="160.63154407222757" x2="1152" y2="725.5600000000001" stroke="rgba(255,255,255,.5)" stroke-width="3"/><line x1="1126" y1="331.35154407222757" x2="1178" y2="331.35154407222757" stroke="rgba(255,255,255,.32)" stroke-width="3"/><line x1="1152" y1="186.9948720155236" x2="1109.3333333333333" y2="725.5600000000001" stroke="rgba(245,158,11,.4)" stroke-width="1.1"/><line x1="1152" y1="186.9948720155236" x2="1194.6666666666667" y2="725.5600000000001" stroke="rgba(245,158,11,.4)" stroke-width="1.1"/><line x1="1152" y1="213.35819995881965" x2="1066.6666666666667" y2="725.5600000000001" stroke="rgba(245,158,11,.4)" stroke-width="1.1"/><line x1="1152" y1="213.35819995881965" x2="1237.3333333333333" y2="725.5600000000001" stroke="rgba(245,158,11,.4)" stroke-width="1.1"/><line x1="1152" y1="239.72152790211572" x2="1024" y2="725.5600000000001" stroke="rgba(245,158,11,.4)" stroke-width="1.1"/><line x1="1152" y1="239.72152790211572" x2="1280" y2="725.5600000000001" stroke="rgba(245,158,11,.4)" stroke-width="1.1"/><line x1="1152" y1="266.08485584541177" x2="981.3333333333334" y2="725.5600000000001" stroke="rgba(245,158,11,.4)" stroke-width="1.1"/><line x1="1152" y1="266.08485584541177" x2="1322.6666666666667" y2="725.5600000000001" stroke="rgba(245,158,11,.4)" stroke-width="1.1"/><line x1="1152" y1="292.4481837887078" x2="938.6666666666666" y2="725.5600000000001" stroke="rgba(245,158,11,.4)" stroke-width="1.1"/><line x1="1152" y1="292.4481837887078" x2="1365.3333333333333" y2="725.5600000000001" stroke="rgba(245,158,11,.4)" stroke-width="1.1"/><line x1="1152" y1="318.81151173200385" x2="896" y2="725.5600000000001" stroke="rgba(245,158,11,.4)" stroke-width="1.1"/><line x1="1152" y1="318.81151173200385" x2="1408" y2="725.5600000000001" stroke="rgba(245,158,11,.4)" stroke-width="1.1"/><line x1="1152" y1="345.17483967529995" x2="853.3333333333333" y2="725.5600000000001" stroke="rgba(245,158,11,.4)" stroke-width="1.1"/><line x1="1152" y1="345.17483967529995" x2="1450.6666666666667" y2="725.5600000000001" stroke="rgba(245,158,11,.4)" stroke-width="1.1"/><line x1="1152" y1="371.53816761859593" x2="810.6666666666667" y2="725.5600000000001" stroke="rgba(245,158,11,.4)" stroke-width="1.1"/><line x1="1152" y1="371.53816761859593" x2="1493.3333333333333" y2="725.5600000000001" stroke="rgba(245,158,11,.4)" stroke-width="1.1"/><line x1="1152" y1="397.90149556189203" x2="768" y2="725.5600000000001" stroke="rgba(245,158,11,.4)" stroke-width="1.1"/><line x1="1152" y1="397.90149556189203" x2="1536" y2="725.5600000000001" stroke="rgba(245,158,11,.4)" stroke-width="1.1"/><line x1="0" y1="725.5600000000001" x2="1600" y2="725.5600000000001" stroke="rgba(255,255,255,.72)" stroke-width="4"/><line x1="0" y1="738.5600000000001" x2="1600" y2="738.5600000000001" stroke="rgba(255,255,255,.24)" stroke-width="2"/>
  <rect width="1600" height="1067" fill="url(#vmeghnaestuary01)"/>
  <rect width="1600" height="1067" filter="url(#nmeghnaestuary01)" opacity="0.045"/>
  
</svg>