<svg xmlns="http://www.w3.org/2000/svg" width="2400" height="1350" viewBox="0 0 2400 1350" role="img" aria-label="Meridian Construct">
  <defs>
    <linearGradient id="gmirsaraihero" x1="0" y1="0" x2="0.35" y2="1">
      <stop offset="0%" stop-color="#3b4c66"/>
      <stop offset="55%" stop-color="#1e293b"/>
      <stop offset="100%" stop-color="#0c111c"/>
    </linearGradient>
    <radialGradient id="vmirsaraihero" cx="50%" cy="38%" r="78%">
      <stop offset="0%" stop-color="#fff" stop-opacity="0.14"/>
      <stop offset="100%" stop-color="#000" stop-opacity="0.5"/>
    </radialGradient>
    <pattern id="pmirsaraihero" width="72" height="72" patternUnits="userSpaceOnUse">
      <path d="M72 0 L0 0 0 72" fill="none" stroke="rgba(255,255,255,.055)" stroke-width="1"/>
    </pattern>
    <filter id="nmirsaraihero"><feTurbulence type="fractalNoise" baseFrequency="0.9" numOctaves="3"/><feColorMatrix type="saturate" values="0"/></filter>
  </defs>
  <rect width="2400" height="1350" fill="url(#gmirsaraihero)"/>
  <rect width="2400" height="1350" fill="url(#pmirsaraihero)"/>
  <rect x="144" y="281.88047556672245" width="264" height="798.1195244332775" fill="none" stroke="rgba(255,255,255,.34)" stroke-width="2"/><line x1="144" y1="321.78645178838633" x2="408" y2="321.78645178838633" stroke="rgba(255,255,255,.13)" stroke-width="1"/><line x1="144" y1="361.6924280100502" x2="408" y2="361.6924280100502" stroke="rgba(255,255,255,.13)" stroke-width="1"/><line x1="144" y1="401.5984042317141" x2="408" y2="401.5984042317141" stroke="rgba(255,255,255,.13)" stroke-width="1"/><line x1="144" y1="441.50438045337796" x2="408" y2="441.50438045337796" stroke="rgba(255,255,255,.13)" stroke-width="1"/><line x1="144" y1="481.41035667504184" x2="408" y2="481.41035667504184" stroke="rgba(255,255,255,.13)" stroke-width="1"/><line x1="144" y1="521.3163328967057" x2="408" y2="521.3163328967057" stroke="rgba(255,255,255,.13)" stroke-width="1"/><line x1="144" y1="561.2223091183696" x2="408" y2="561.2223091183696" stroke="rgba(255,255,255,.13)" stroke-width="1"/><line x1="144" y1="601.1282853400335" x2="408" y2="601.1282853400335" stroke="rgba(255,255,255,.13)" stroke-width="1"/><line x1="144" y1="641.0342615616973" x2="408" y2="641.0342615616973" stroke="rgba(255,255,255,.13)" stroke-width="1"/><line x1="144" y1="680.9402377833612" x2="408" y2="680.9402377833612" stroke="rgba(255,255,255,.13)" stroke-width="1"/><line x1="144" y1="720.8462140050251" x2="408" y2="720.8462140050251" stroke="rgba(255,255,255,.13)" stroke-width="1"/><line x1="144" y1="760.752190226689" x2="408" y2="760.752190226689" stroke="rgba(255,255,255,.13)" stroke-width="1"/><line x1="144" y1="800.6581664483529" x2="408" y2="800.6581664483529" stroke="rgba(255,255,255,.13)" stroke-width="1"/><line x1="144" y1="840.5641426700167" x2="408" y2="840.5641426700167" stroke="rgba(255,255,255,.13)" stroke-width="1"/><line x1="144" y1="880.4701188916806" x2="408" y2="880.4701188916806" stroke="rgba(255,255,255,.13)" stroke-width="1"/><line x1="144" y1="920.3760951133445" x2="408" y2="920.3760951133445" stroke="rgba(255,255,255,.13)" stroke-width="1"/><line x1="144" y1="960.2820713350084" x2="408" y2="960.2820713350084" stroke="rgba(255,255,255,.13)" stroke-width="1"/><line x1="144" y1="1000.1880475566722" x2="408" y2="1000.1880475566722" stroke="rgba(255,255,255,.13)" stroke-width="1"/><line x1="144" y1="1040.0940237783361" x2="408" y2="1040.0940237783361" stroke="rgba(255,255,255,.13)" stroke-width="1"/><rect x="516" y="697.5447186687961" width="264" height="382.4552813312039" fill="none" stroke="rgba(255,255,255,.34)" stroke-width="2"/><line x1="516" y1="735.7902468019165" x2="780" y2="735.7902468019165" stroke="rgba(255,255,255,.13)" stroke-width="1"/><line x1="516" y1="774.0357749350369" x2="780" y2="774.0357749350369" stroke="rgba(255,255,255,.13)" stroke-width="1"/><line x1="516" y1="812.2813030681573" x2="780" y2="812.2813030681573" stroke="rgba(255,255,255,.13)" stroke-width="1"/><line x1="516" y1="850.5268312012777" x2="780" y2="850.5268312012777" stroke="rgba(255,255,255,.13)" stroke-width="1"/><line x1="516" y1="888.7723593343981" x2="780" y2="888.7723593343981" stroke="rgba(255,255,255,.13)" stroke-width="1"/><line x1="516" y1="927.0178874675184" x2="780" y2="927.0178874675184" stroke="rgba(255,255,255,.13)" stroke-width="1"/><line x1="516" y1="965.2634156006388" x2="780" y2="965.2634156006388" stroke="rgba(255,255,255,.13)" stroke-width="1"/><line x1="516" y1="1003.5089437337592" x2="780" y2="1003.5089437337592" stroke="rgba(255,255,255,.13)" stroke-width="1"/><line x1="516" y1="1041.7544718668796" x2="780" y2="1041.7544718668796" stroke="rgba(255,255,255,.13)" stroke-width="1"/><rect x="888" y="409.8345818789676" width="264" height="670.1654181210324" fill="none" stroke="rgba(255,255,255,.34)" stroke-width="2"/><line x1="888" y1="449.2560770625577" x2="1152" y2="449.2560770625577" stroke="rgba(255,255,255,.13)" stroke-width="1"/><line x1="888" y1="488.67757224614786" x2="1152" y2="488.67757224614786" stroke="rgba(255,255,255,.13)" stroke-width="1"/><line x1="888" y1="528.0990674297379" x2="1152" y2="528.0990674297379" stroke="rgba(255,255,255,.13)" stroke-width="1"/><line x1="888" y1="567.5205626133281" x2="1152" y2="567.5205626133281" stroke="rgba(255,255,255,.13)" stroke-width="1"/><line x1="888" y1="606.9420577969183" x2="1152" y2="606.9420577969183" stroke="rgba(255,255,255,.13)" stroke-width="1"/><line x1="888" y1="646.3635529805084" x2="1152" y2="646.3635529805084" stroke="rgba(255,255,255,.13)" stroke-width="1"/><line x1="888" y1="685.7850481640985" x2="1152" y2="685.7850481640985" stroke="rgba(255,255,255,.13)" stroke-width="1"/><line x1="888" y1="725.2065433476887" x2="1152" y2="725.2065433476887" stroke="rgba(255,255,255,.13)" stroke-width="1"/><line x1="888" y1="764.6280385312789" x2="1152" y2="764.6280385312789" stroke="rgba(255,255,255,.13)" stroke-width="1"/><line x1="888" y1="804.049533714869" x2="1152" y2="804.049533714869" stroke="rgba(255,255,255,.13)" stroke-width="1"/><line x1="888" y1="843.471028898459" x2="1152" y2="843.471028898459" stroke="rgba(255,255,255,.13)" stroke-width="1"/><line x1="888" y1="882.8925240820492" x2="1152" y2="882.8925240820492" stroke="rgba(255,255,255,.13)" stroke-width="1"/><line x1="888" y1="922.3140192656394" x2="1152" y2="922.3140192656394" stroke="rgba(255,255,255,.13)" stroke-width="1"/><line x1="888" y1="961.7355144492295" x2="1152" y2="961.7355144492295" stroke="rgba(255,255,255,.13)" stroke-width="1"/><line x1="888" y1="1001.1570096328196" x2="1152" y2="1001.1570096328196" stroke="rgba(255,255,255,.13)" stroke-width="1"/><line x1="888" y1="1040.5785048164098" x2="1152" y2="1040.5785048164098" stroke="rgba(255,255,255,.13)" stroke-width="1"/><rect x="1259.9999999999998" y="271.6649018274619" width="264" height="808.3350981725381" fill="none" stroke="rgba(255,255,255,.34)" stroke-width="2"/><line x1="1259.9999999999998" y1="312.0816567360888" x2="1523.9999999999998" y2="312.0816567360888" stroke="rgba(255,255,255,.13)" stroke-width="1"/><line x1="1259.9999999999998" y1="352.4984116447157" x2="1523.9999999999998" y2="352.4984116447157" stroke="rgba(255,255,255,.13)" stroke-width="1"/><line x1="1259.9999999999998" y1="392.9151665533426" x2="1523.9999999999998" y2="392.9151665533426" stroke="rgba(255,255,255,.13)" stroke-width="1"/><line x1="1259.9999999999998" y1="433.3319214619695" x2="1523.9999999999998" y2="433.3319214619695" stroke="rgba(255,255,255,.13)" stroke-width="1"/><line x1="1259.9999999999998" y1="473.7486763705964" x2="1523.9999999999998" y2="473.7486763705964" stroke="rgba(255,255,255,.13)" stroke-width="1"/><line x1="1259.9999999999998" y1="514.1654312792234" x2="1523.9999999999998" y2="514.1654312792234" stroke="rgba(255,255,255,.13)" stroke-width="1"/><line x1="1259.9999999999998" y1="554.5821861878503" x2="1523.9999999999998" y2="554.5821861878503" stroke="rgba(255,255,255,.13)" stroke-width="1"/><line x1="1259.9999999999998" y1="594.9989410964772" x2="1523.9999999999998" y2="594.9989410964772" stroke="rgba(255,255,255,.13)" stroke-width="1"/><line x1="1259.9999999999998" y1="635.4156960051041" x2="1523.9999999999998" y2="635.4156960051041" stroke="rgba(255,255,255,.13)" stroke-width="1"/><line x1="1259.9999999999998" y1="675.832450913731" x2="1523.9999999999998" y2="675.832450913731" stroke="rgba(255,255,255,.13)" stroke-width="1"/><line x1="1259.9999999999998" y1="716.2492058223579" x2="1523.9999999999998" y2="716.2492058223579" stroke="rgba(255,255,255,.13)" stroke-width="1"/><line x1="1259.9999999999998" y1="756.6659607309848" x2="1523.9999999999998" y2="756.6659607309848" stroke="rgba(255,255,255,.13)" stroke-width="1"/><line x1="1259.9999999999998" y1="797.0827156396117" x2="1523.9999999999998" y2="797.0827156396117" stroke="rgba(255,255,255,.13)" stroke-width="1"/><line x1="1259.9999999999998" y1="837.4994705482386" x2="1523.9999999999998" y2="837.4994705482386" stroke="rgba(255,255,255,.13)" stroke-width="1"/><line x1="1259.9999999999998" y1="877.9162254568655" x2="1523.9999999999998" y2="877.9162254568655" stroke="rgba(255,255,255,.13)" stroke-width="1"/><line x1="1259.9999999999998" y1="918.3329803654924" x2="1523.9999999999998" y2="918.3329803654924" stroke="rgba(255,255,255,.13)" stroke-width="1"/><line x1="1259.9999999999998" y1="958.7497352741193" x2="1523.9999999999998" y2="958.7497352741193" stroke="rgba(255,255,255,.13)" stroke-width="1"/><line x1="1259.9999999999998" y1="999.1664901827462" x2="1523.9999999999998" y2="999.1664901827462" stroke="rgba(255,255,255,.13)" stroke-width="1"/><line x1="1259.9999999999998" y1="1039.583245091373" x2="1523.9999999999998" y2="1039.583245091373" stroke="rgba(255,255,255,.13)" stroke-width="1"/><rect x="1631.9999999999998" y="620.9995337482542" width="264" height="459.0004662517458" fill="none" stroke="rgba(255,255,255,.34)" stroke-width="2"/><line x1="1631.9999999999998" y1="662.7268488620492" x2="1895.9999999999998" y2="662.7268488620492" stroke="rgba(255,255,255,.13)" stroke-width="1"/><line x1="1631.9999999999998" y1="704.4541639758443" x2="1895.9999999999998" y2="704.4541639758443" stroke="rgba(255,255,255,.13)" stroke-width="1"/><line x1="1631.9999999999998" y1="746.1814790896394" x2="1895.9999999999998" y2="746.1814790896394" stroke="rgba(255,255,255,.13)" stroke-width="1"/><line x1="1631.9999999999998" y1="787.9087942034345" x2="1895.9999999999998" y2="787.9087942034345" stroke="rgba(255,255,255,.13)" stroke-width="1"/><line x1="1631.9999999999998" y1="829.6361093172295" x2="1895.9999999999998" y2="829.6361093172295" stroke="rgba(255,255,255,.13)" stroke-width="1"/><line x1="1631.9999999999998" y1="871.3634244310247" x2="1895.9999999999998" y2="871.3634244310247" stroke="rgba(255,255,255,.13)" stroke-width="1"/><line x1="1631.9999999999998" y1="913.0907395448197" x2="1895.9999999999998" y2="913.0907395448197" stroke="rgba(255,255,255,.13)" stroke-width="1"/><line x1="1631.9999999999998" y1="954.8180546586148" x2="1895.9999999999998" y2="954.8180546586148" stroke="rgba(255,255,255,.13)" stroke-width="1"/><line x1="1631.9999999999998" y1="996.5453697724098" x2="1895.9999999999998" y2="996.5453697724098" stroke="rgba(255,255,255,.13)" stroke-width="1"/><line x1="1631.9999999999998" y1="1038.2726848862048" x2="1895.9999999999998" y2="1038.2726848862048" stroke="rgba(255,255,255,.13)" stroke-width="1"/><rect x="2004" y="765.96541876439" width="264" height="314.03458123560995" fill="none" stroke="rgba(255,255,255,.34)" stroke-width="2"/><line x1="2004" y1="805.2197414188413" x2="2268" y2="805.2197414188413" stroke="rgba(255,255,255,.13)" stroke-width="1"/><line x1="2004" y1="844.4740640732925" x2="2268" y2="844.4740640732925" stroke="rgba(255,255,255,.13)" stroke-width="1"/><line x1="2004" y1="883.7283867277438" x2="2268" y2="883.7283867277438" stroke="rgba(255,255,255,.13)" stroke-width="1"/><line x1="2004" y1="922.982709382195" x2="2268" y2="922.982709382195" stroke="rgba(255,255,255,.13)" stroke-width="1"/><line x1="2004" y1="962.2370320366463" x2="2268" y2="962.2370320366463" stroke="rgba(255,255,255,.13)" stroke-width="1"/><line x1="2004" y1="1001.4913546910975" x2="2268" y2="1001.4913546910975" stroke="rgba(255,255,255,.13)" stroke-width="1"/><line x1="2004" y1="1040.7456773455488" x2="2268" y2="1040.7456773455488" stroke="rgba(255,255,255,.13)" stroke-width="1"/><line x1="0" y1="1080" x2="2400" y2="1080" stroke="rgba(245,158,11,.55)" stroke-width="3"/>
  <rect width="2400" height="1350" fill="url(#vmirsaraihero)"/>
  <rect width="2400" height="1350" filter="url(#nmirsaraihero)" opacity="0.045"/>
  
</svg>