<svg xmlns="http://www.w3.org/2000/svg" width="2400" height="1350" viewBox="0 0 2400 1350" role="img" aria-label="Meridian Construct">
  <defs>
    <linearGradient id="gnorthestuaryhero" x1="0" y1="0" x2="0.35" y2="1">
      <stop offset="0%" stop-color="#0f4c81"/>
      <stop offset="55%" stop-color="#0a3459"/>
      <stop offset="100%" stop-color="#04121e"/>
    </linearGradient>
    <radialGradient id="vnorthestuaryhero" cx="50%" cy="38%" r="78%">
      <stop offset="0%" stop-color="#fff" stop-opacity="0.14"/>
      <stop offset="100%" stop-color="#000" stop-opacity="0.5"/>
    </radialGradient>
    <pattern id="pnorthestuaryhero" width="72" height="72" patternUnits="userSpaceOnUse">
      <path d="M72 0 L0 0 0 72" fill="none" stroke="rgba(255,255,255,.055)" stroke-width="1"/>
    </pattern>
    <filter id="nnorthestuaryhero"><feTurbulence type="fractalNoise" baseFrequency="0.9" numOctaves="3"/><feColorMatrix type="saturate" values="0"/></filter>
  </defs>
  <rect width="2400" height="1350" fill="url(#gnorthestuaryhero)"/>
  <rect width="2400" height="1350" fill="url(#pnorthestuaryhero)"/>
  <line x1="720" y1="200.18712478363886" x2="720" y2="918.0000000000001" stroke="rgba(255,255,255,.5)" stroke-width="3"/><line x1="694" y1="416.18712478363886" x2="746" y2="416.18712478363886" stroke="rgba(255,255,255,.32)" stroke-width="3"/><line x1="720" y1="233.6850589604024" x2="656" y2="918.0000000000001" stroke="rgba(245,158,11,.4)" stroke-width="1.1"/><line x1="720" y1="233.6850589604024" x2="784" y2="918.0000000000001" stroke="rgba(245,158,11,.4)" stroke-width="1.1"/><line x1="720" y1="267.1829931371659" x2="592" y2="918.0000000000001" stroke="rgba(245,158,11,.4)" stroke-width="1.1"/><line x1="720" y1="267.1829931371659" x2="848" y2="918.0000000000001" stroke="rgba(245,158,11,.4)" stroke-width="1.1"/><line x1="720" y1="300.68092731392943" x2="528" y2="918.0000000000001" stroke="rgba(245,158,11,.4)" stroke-width="1.1"/><line x1="720" y1="300.68092731392943" x2="912" y2="918.0000000000001" stroke="rgba(245,158,11,.4)" stroke-width="1.1"/><line x1="720" y1="334.17886149069295" x2="464.00000000000006" y2="918.0000000000001" stroke="rgba(245,158,11,.4)" stroke-width="1.1"/><line x1="720" y1="334.17886149069295" x2="976" y2="918.0000000000001" stroke="rgba(245,158,11,.4)" stroke-width="1.1"/><line x1="720" y1="367.6767956674565" x2="400" y2="918.0000000000001" stroke="rgba(245,158,11,.4)" stroke-width="1.1"/><line x1="720" y1="367.6767956674565" x2="1040" y2="918.0000000000001" stroke="rgba(245,158,11,.4)" stroke-width="1.1"/><line x1="720" y1="401.17472984422" x2="336" y2="918.0000000000001" stroke="rgba(245,158,11,.4)" stroke-width="1.1"/><line x1="720" y1="401.17472984422" x2="1104" y2="918.0000000000001" stroke="rgba(245,158,11,.4)" stroke-width="1.1"/><line x1="720" y1="434.6726640209836" x2="272" y2="918.0000000000001" stroke="rgba(245,158,11,.4)" stroke-width="1.1"/><line x1="720" y1="434.6726640209836" x2="1168" y2="918.0000000000001" stroke="rgba(245,158,11,.4)" stroke-width="1.1"/><line x1="720" y1="468.17059819774704" x2="208.0000000000001" y2="918.0000000000001" stroke="rgba(245,158,11,.4)" stroke-width="1.1"/><line x1="720" y1="468.17059819774704" x2="1232" y2="918.0000000000001" stroke="rgba(245,158,11,.4)" stroke-width="1.1"/><line x1="720" y1="501.66853237451056" x2="144" y2="918.0000000000001" stroke="rgba(245,158,11,.4)" stroke-width="1.1"/><line x1="720" y1="501.66853237451056" x2="1296" y2="918.0000000000001" stroke="rgba(245,158,11,.4)" stroke-width="1.1"/><line x1="1728" y1="197.2828542762436" x2="1728" y2="918.0000000000001" stroke="rgba(255,255,255,.5)" stroke-width="3"/><line x1="1702" y1="413.2828542762436" x2="1754" y2="413.2828542762436" stroke="rgba(255,255,255,.32)" stroke-width="3"/><line x1="1728" y1="230.91632107668556" x2="1664" y2="918.0000000000001" stroke="rgba(245,158,11,.4)" stroke-width="1.1"/><line x1="1728" y1="230.91632107668556" x2="1792" y2="918.0000000000001" stroke="rgba(245,158,11,.4)" stroke-width="1.1"/><line x1="1728" y1="264.5497878771275" x2="1600" y2="918.0000000000001" stroke="rgba(245,158,11,.4)" stroke-width="1.1"/><line x1="1728" y1="264.5497878771275" x2="1856" y2="918.0000000000001" stroke="rgba(245,158,11,.4)" stroke-width="1.1"/><line x1="1728" y1="298.1832546775695" x2="1536" y2="918.0000000000001" stroke="rgba(245,158,11,.4)" stroke-width="1.1"/><line x1="1728" y1="298.1832546775695" x2="1920" y2="918.0000000000001" stroke="rgba(245,158,11,.4)" stroke-width="1.1"/><line x1="1728" y1="331.81672147801146" x2="1472" y2="918.0000000000001" stroke="rgba(245,158,11,.4)" stroke-width="1.1"/><line x1="1728" y1="331.81672147801146" x2="1984" y2="918.0000000000001" stroke="rgba(245,158,11,.4)" stroke-width="1.1"/><line x1="1728" y1="365.4501882784534" x2="1408" y2="918.0000000000001" stroke="rgba(245,158,11,.4)" stroke-width="1.1"/><line x1="1728" y1="365.4501882784534" x2="2048" y2="918.0000000000001" stroke="rgba(245,158,11,.4)" stroke-width="1.1"/><line x1="1728" y1="399.0836550788954" x2="1344" y2="918.0000000000001" stroke="rgba(245,158,11,.4)" stroke-width="1.1"/><line x1="1728" y1="399.0836550788954" x2="2112" y2="918.0000000000001" stroke="rgba(245,158,11,.4)" stroke-width="1.1"/><line x1="1728" y1="432.71712187933736" x2="1280" y2="918.0000000000001" stroke="rgba(245,158,11,.4)" stroke-width="1.1"/><line x1="1728" y1="432.71712187933736" x2="2176" y2="918.0000000000001" stroke="rgba(245,158,11,.4)" stroke-width="1.1"/><line x1="1728" y1="466.3505886797794" x2="1216" y2="918.0000000000001" stroke="rgba(245,158,11,.4)" stroke-width="1.1"/><line x1="1728" y1="466.3505886797794" x2="2240" y2="918.0000000000001" stroke="rgba(245,158,11,.4)" stroke-width="1.1"/><line x1="1728" y1="499.98405548022134" x2="1152" y2="918.0000000000001" stroke="rgba(245,158,11,.4)" stroke-width="1.1"/><line x1="1728" y1="499.98405548022134" x2="2304" y2="918.0000000000001" stroke="rgba(245,158,11,.4)" stroke-width="1.1"/><line x1="0" y1="918.0000000000001" x2="2400" y2="918.0000000000001" stroke="rgba(255,255,255,.72)" stroke-width="4"/><line x1="0" y1="931.0000000000001" x2="2400" y2="931.0000000000001" stroke="rgba(255,255,255,.24)" stroke-width="2"/>
  <rect width="2400" height="1350" fill="url(#vnorthestuaryhero)"/>
  <rect width="2400" height="1350" filter="url(#nnorthestuaryhero)" opacity="0.045"/>
  
</svg>