<svg xmlns="http://www.w3.org/2000/svg" width="1200" height="1500" viewBox="0 0 1200 1500" role="img" aria-label="Riverside Water Reclamation">
  <defs>
    <linearGradient id="griversidewater05" x1="0" y1="0" x2="0.35" y2="1">
      <stop offset="0%" stop-color="#136b7d"/>
      <stop offset="55%" stop-color="#0d4360"/>
      <stop offset="100%" stop-color="#0a1420"/>
    </linearGradient>
    <radialGradient id="vriversidewater05" cx="50%" cy="38%" r="78%">
      <stop offset="0%" stop-color="#fff" stop-opacity="0.14"/>
      <stop offset="100%" stop-color="#000" stop-opacity="0.5"/>
    </radialGradient>
    <pattern id="priversidewater05" width="72" height="72" patternUnits="userSpaceOnUse">
      <path d="M72 0 L0 0 0 72" fill="none" stroke="rgba(255,255,255,.055)" stroke-width="1"/>
    </pattern>
    <filter id="nriversidewater05"><feTurbulence type="fractalNoise" baseFrequency="0.9" numOctaves="3"/><feColorMatrix type="saturate" values="0"/></filter>
  </defs>
  <rect width="1200" height="1500" fill="url(#griversidewater05)"/>
  <rect width="1200" height="1500" fill="url(#priversidewater05)"/>
  <line x1="264" y1="1260" x2="264" y2="585.5731341987848" stroke="rgba(255,255,255,.44)" stroke-width="3"/><line x1="264" y1="585.5731341987848" x2="353.97148874797097" y2="587.8383521736671" stroke="rgba(245,158,11,.55)" stroke-width="2.4"/><line x1="264" y1="585.5731341987848" x2="174.33215911159397" y2="593.2983080098713" stroke="rgba(245,158,11,.55)" stroke-width="2.4"/><line x1="264" y1="585.5731341987848" x2="243.0356644810224" y2="498.0488710699373" stroke="rgba(245,158,11,.55)" stroke-width="2.4"/><line x1="600" y1="1260" x2="600" y2="748.8904709927738" stroke="rgba(255,255,255,.44)" stroke-width="3"/><line x1="600" y1="748.8904709927738" x2="688.8553940369218" y2="763.198474017073" stroke="rgba(245,158,11,.55)" stroke-width="2.4"/><line x1="600" y1="748.8904709927738" x2="520.5543323054303" y2="791.1797826987357" stroke="rgba(245,158,11,.55)" stroke-width="2.4"/><line x1="600" y1="748.8904709927738" x2="613.2704079036014" y2="659.874201277221" stroke="rgba(245,158,11,.55)" stroke-width="2.4"/><line x1="936" y1="1260" x2="936" y2="672.4269902100785" stroke="rgba(255,255,255,.44)" stroke-width="3"/><line x1="936" y1="672.4269902100785" x2="1020.4567221337818" y2="703.5246120872763" stroke="rgba(245,158,11,.55)" stroke-width="2.4"/><line x1="936" y1="672.4269902100785" x2="866.8216717922105" y2="729.9974592578061" stroke="rgba(245,158,11,.55)" stroke-width="2.4"/><line x1="936" y1="672.4269902100785" x2="922.5167395607846" y2="583.4427124531159" stroke="rgba(245,158,11,.55)" stroke-width="2.4"/><line x1="0" y1="1272" x2="1200" y2="1272" stroke="rgba(255,255,255,.12)" stroke-width="1"/><line x1="0" y1="1286" x2="1200" y2="1286" stroke="rgba(255,255,255,.12)" stroke-width="1"/><line x1="0" y1="1300" x2="1200" y2="1300" stroke="rgba(255,255,255,.12)" stroke-width="1"/><line x1="0" y1="1314" x2="1200" y2="1314" stroke="rgba(255,255,255,.12)" stroke-width="1"/>
  <rect width="1200" height="1500" fill="url(#vriversidewater05)"/>
  <rect width="1200" height="1500" filter="url(#nriversidewater05)" opacity="0.045"/>
  <g font-family="Manrope, ui-sans-serif, system-ui, sans-serif">
    <rect x="66" y="1371.5" width="4" height="46" fill="#F59E0B"/>
    <text x="84" y="1393.5" fill="#ffffff" font-size="23" font-weight="700" letter-spacing="0.5">Riverside Water Reclamation</text>
    <text x="84" y="1413.5" fill="rgba(255,255,255,.62)" font-size="14" font-weight="600" letter-spacing="2.4">PLATE 05</text>
  </g>
</svg>