<svg xmlns="http://www.w3.org/2000/svg" width="1200" height="1500" viewBox="0 0 1200 1500" role="img" aria-label="Meridian Construct">
  <defs>
    <linearGradient id="gsayedabad03" x1="0" y1="0" x2="0.35" y2="1">
      <stop offset="0%" stop-color="#136b7d"/>
      <stop offset="55%" stop-color="#0d4360"/>
      <stop offset="100%" stop-color="#0a1420"/>
    </linearGradient>
    <radialGradient id="vsayedabad03" cx="50%" cy="38%" r="78%">
      <stop offset="0%" stop-color="#fff" stop-opacity="0.14"/>
      <stop offset="100%" stop-color="#000" stop-opacity="0.5"/>
    </radialGradient>
    <pattern id="psayedabad03" width="72" height="72" patternUnits="userSpaceOnUse">
      <path d="M72 0 L0 0 0 72" fill="none" stroke="rgba(255,255,255,.055)" stroke-width="1"/>
    </pattern>
    <filter id="nsayedabad03"><feTurbulence type="fractalNoise" baseFrequency="0.9" numOctaves="3"/><feColorMatrix type="saturate" values="0"/></filter>
  </defs>
  <rect width="1200" height="1500" fill="url(#gsayedabad03)"/>
  <rect width="1200" height="1500" fill="url(#psayedabad03)"/>
  <line x1="264" y1="1260" x2="264" y2="628.662956971675" stroke="rgba(255,255,255,.44)" stroke-width="3"/><line x1="264" y1="628.662956971675" x2="353.9276491102295" y2="632.2709932114375" stroke="rgba(245,158,11,.55)" stroke-width="2.4"/><line x1="264" y1="628.662956971675" x2="179.33894891567604" y2="659.1999252117851" stroke="rgba(245,158,11,.55)" stroke-width="2.4"/><line x1="264" y1="628.662956971675" x2="232.51458983347527" y2="544.3500341979644" stroke="rgba(245,158,11,.55)" stroke-width="2.4"/><line x1="600" y1="1260" x2="600" y2="683.9483774034305" stroke="rgba(255,255,255,.44)" stroke-width="3"/><line x1="600" y1="683.9483774034305" x2="682.250688891717" y2="720.4836230826096" stroke="rgba(245,158,11,.55)" stroke-width="2.4"/><line x1="600" y1="683.9483774034305" x2="523.1178346847438" y2="730.7365453141065" stroke="rgba(245,158,11,.55)" stroke-width="2.4"/><line x1="600" y1="683.9483774034305" x2="592.1653858362325" y2="594.2900324437733" stroke="rgba(245,158,11,.55)" stroke-width="2.4"/><line x1="936" y1="1260" x2="936" y2="561.4240292692557" stroke="rgba(255,255,255,.44)" stroke-width="3"/><line x1="936" y1="561.4240292692557" x2="1002.9364627918859" y2="621.5863924950339" stroke="rgba(245,158,11,.55)" stroke-width="2.4"/><line x1="936" y1="561.4240292692557" x2="883.5827942777959" y2="634.5843774387124" stroke="rgba(245,158,11,.55)" stroke-width="2.4"/><line x1="936" y1="561.4240292692557" x2="946.3571115232472" y2="472.02195859471806" stroke="rgba(245,158,11,.55)" stroke-width="2.4"/><line x1="0" y1="1272" x2="1200" y2="1272" stroke="rgba(255,255,255,.12)" stroke-width="1"/><line x1="0" y1="1286" x2="1200" y2="1286" stroke="rgba(255,255,255,.12)" stroke-width="1"/><line x1="0" y1="1300" x2="1200" y2="1300" stroke="rgba(255,255,255,.12)" stroke-width="1"/><line x1="0" y1="1314" x2="1200" y2="1314" stroke="rgba(255,255,255,.12)" stroke-width="1"/>
  <rect width="1200" height="1500" fill="url(#vsayedabad03)"/>
  <rect width="1200" height="1500" filter="url(#nsayedabad03)" opacity="0.045"/>
  
</svg>