<svg xmlns="http://www.w3.org/2000/svg" width="1600" height="1067" viewBox="0 0 1600 1067" role="img" aria-label="On site">
  <defs>
    <linearGradient id="gculture03" x1="0" y1="0" x2="0.35" y2="1">
      <stop offset="0%" stop-color="#2f5738"/>
      <stop offset="55%" stop-color="#1c3524"/>
      <stop offset="100%" stop-color="#0b1710"/>
    </linearGradient>
    <radialGradient id="vculture03" cx="50%" cy="38%" r="78%">
      <stop offset="0%" stop-color="#fff" stop-opacity="0.14"/>
      <stop offset="100%" stop-color="#000" stop-opacity="0.5"/>
    </radialGradient>
    <pattern id="pculture03" width="72" height="72" patternUnits="userSpaceOnUse">
      <path d="M72 0 L0 0 0 72" fill="none" stroke="rgba(255,255,255,.055)" stroke-width="1"/>
    </pattern>
    <filter id="nculture03"><feTurbulence type="fractalNoise" baseFrequency="0.9" numOctaves="3"/><feColorMatrix type="saturate" values="0"/></filter>
  </defs>
  <rect width="1600" height="1067" fill="url(#gculture03)"/>
  <rect width="1600" height="1067" fill="url(#pculture03)"/>
  <rect x="96" y="448.85266893170774" width="176" height="404.7473310682923" fill="none" stroke="rgba(255,255,255,.34)" stroke-width="2"/><line x1="96" y1="489.32740203853695" x2="272" y2="489.32740203853695" stroke="rgba(255,255,255,.13)" stroke-width="1"/><line x1="96" y1="529.8021351453662" x2="272" y2="529.8021351453662" stroke="rgba(255,255,255,.13)" stroke-width="1"/><line x1="96" y1="570.2768682521954" x2="272" y2="570.2768682521954" stroke="rgba(255,255,255,.13)" stroke-width="1"/><line x1="96" y1="610.7516013590247" x2="272" y2="610.7516013590247" stroke="rgba(255,255,255,.13)" stroke-width="1"/><line x1="96" y1="651.2263344658538" x2="272" y2="651.2263344658538" stroke="rgba(255,255,255,.13)" stroke-width="1"/><line x1="96" y1="691.7010675726831" x2="272" y2="691.7010675726831" stroke="rgba(255,255,255,.13)" stroke-width="1"/><line x1="96" y1="732.1758006795123" x2="272" y2="732.1758006795123" stroke="rgba(255,255,255,.13)" stroke-width="1"/><line x1="96" y1="772.6505337863416" x2="272" y2="772.6505337863416" stroke="rgba(255,255,255,.13)" stroke-width="1"/><line x1="96" y1="813.1252668931708" x2="272" y2="813.1252668931708" stroke="rgba(255,255,255,.13)" stroke-width="1"/><rect x="344" y="573.1627316065133" width="176" height="280.43726839348676" fill="none" stroke="rgba(255,255,255,.34)" stroke-width="2"/><line x1="344" y1="613.2251985198685" x2="520" y2="613.2251985198685" stroke="rgba(255,255,255,.13)" stroke-width="1"/><line x1="344" y1="653.2876654332238" x2="520" y2="653.2876654332238" stroke="rgba(255,255,255,.13)" stroke-width="1"/><line x1="344" y1="693.350132346579" x2="520" y2="693.350132346579" stroke="rgba(255,255,255,.13)" stroke-width="1"/><line x1="344" y1="733.4125992599343" x2="520" y2="733.4125992599343" stroke="rgba(255,255,255,.13)" stroke-width="1"/><line x1="344" y1="773.4750661732895" x2="520" y2="773.4750661732895" stroke="rgba(255,255,255,.13)" stroke-width="1"/><line x1="344" y1="813.5375330866448" x2="520" y2="813.5375330866448" stroke="rgba(255,255,255,.13)" stroke-width="1"/><rect x="592" y="277.0391212369316" width="176" height="576.5608787630684" fill="none" stroke="rgba(255,255,255,.34)" stroke-width="2"/><line x1="592" y1="318.2220411485793" x2="768" y2="318.2220411485793" stroke="rgba(255,255,255,.13)" stroke-width="1"/><line x1="592" y1="359.40496106022704" x2="768" y2="359.40496106022704" stroke="rgba(255,255,255,.13)" stroke-width="1"/><line x1="592" y1="400.5878809718748" x2="768" y2="400.5878809718748" stroke="rgba(255,255,255,.13)" stroke-width="1"/><line x1="592" y1="441.77080088352255" x2="768" y2="441.77080088352255" stroke="rgba(255,255,255,.13)" stroke-width="1"/><line x1="592" y1="482.9537207951703" x2="768" y2="482.9537207951703" stroke="rgba(255,255,255,.13)" stroke-width="1"/><line x1="592" y1="524.1366407068181" x2="768" y2="524.1366407068181" stroke="rgba(255,255,255,.13)" stroke-width="1"/><line x1="592" y1="565.3195606184659" x2="768" y2="565.3195606184659" stroke="rgba(255,255,255,.13)" stroke-width="1"/><line x1="592" y1="606.5024805301135" x2="768" y2="606.5024805301135" stroke="rgba(255,255,255,.13)" stroke-width="1"/><line x1="592" y1="647.6854004417612" x2="768" y2="647.6854004417612" stroke="rgba(255,255,255,.13)" stroke-width="1"/><line x1="592" y1="688.868320353409" x2="768" y2="688.868320353409" stroke="rgba(255,255,255,.13)" stroke-width="1"/><line x1="592" y1="730.0512402650568" x2="768" y2="730.0512402650568" stroke="rgba(255,255,255,.13)" stroke-width="1"/><line x1="592" y1="771.2341601767046" x2="768" y2="771.2341601767046" stroke="rgba(255,255,255,.13)" stroke-width="1"/><line x1="592" y1="812.4170800883522" x2="768" y2="812.4170800883522" stroke="rgba(255,255,255,.13)" stroke-width="1"/><rect x="839.9999999999999" y="321.27320134434854" width="176" height="532.3267986556515" fill="none" stroke="rgba(255,255,255,.34)" stroke-width="2"/><line x1="839.9999999999999" y1="362.2214166255525" x2="1015.9999999999999" y2="362.2214166255525" stroke="rgba(255,255,255,.13)" stroke-width="1"/><line x1="839.9999999999999" y1="403.1696319067564" x2="1015.9999999999999" y2="403.1696319067564" stroke="rgba(255,255,255,.13)" stroke-width="1"/><line x1="839.9999999999999" y1="444.1178471879604" x2="1015.9999999999999" y2="444.1178471879604" stroke="rgba(255,255,255,.13)" stroke-width="1"/><line x1="839.9999999999999" y1="485.06606246916436" x2="1015.9999999999999" y2="485.06606246916436" stroke="rgba(255,255,255,.13)" stroke-width="1"/><line x1="839.9999999999999" y1="526.0142777503684" x2="1015.9999999999999" y2="526.0142777503684" stroke="rgba(255,255,255,.13)" stroke-width="1"/><line x1="839.9999999999999" y1="566.9624930315723" x2="1015.9999999999999" y2="566.9624930315723" stroke="rgba(255,255,255,.13)" stroke-width="1"/><line x1="839.9999999999999" y1="607.9107083127763" x2="1015.9999999999999" y2="607.9107083127763" stroke="rgba(255,255,255,.13)" stroke-width="1"/><line x1="839.9999999999999" y1="648.8589235939802" x2="1015.9999999999999" y2="648.8589235939802" stroke="rgba(255,255,255,.13)" stroke-width="1"/><line x1="839.9999999999999" y1="689.8071388751841" x2="1015.9999999999999" y2="689.8071388751841" stroke="rgba(255,255,255,.13)" stroke-width="1"/><line x1="839.9999999999999" y1="730.7553541563881" x2="1015.9999999999999" y2="730.7553541563881" stroke="rgba(255,255,255,.13)" stroke-width="1"/><line x1="839.9999999999999" y1="771.703569437592" x2="1015.9999999999999" y2="771.703569437592" stroke="rgba(255,255,255,.13)" stroke-width="1"/><line x1="839.9999999999999" y1="812.6517847187961" x2="1015.9999999999999" y2="812.6517847187961" stroke="rgba(255,255,255,.13)" stroke-width="1"/><rect x="1088" y="238.4428186143748" width="176" height="615.1571813856252" fill="none" stroke="rgba(255,255,255,.34)" stroke-width="2"/><line x1="1088" y1="279.4532973734165" x2="1264" y2="279.4532973734165" stroke="rgba(255,255,255,.13)" stroke-width="1"/><line x1="1088" y1="320.4637761324582" x2="1264" y2="320.4637761324582" stroke="rgba(255,255,255,.13)" stroke-width="1"/><line x1="1088" y1="361.47425489149987" x2="1264" y2="361.47425489149987" stroke="rgba(255,255,255,.13)" stroke-width="1"/><line x1="1088" y1="402.48473365054156" x2="1264" y2="402.48473365054156" stroke="rgba(255,255,255,.13)" stroke-width="1"/><line x1="1088" y1="443.49521240958325" x2="1264" y2="443.49521240958325" stroke="rgba(255,255,255,.13)" stroke-width="1"/><line x1="1088" y1="484.5056911686249" x2="1264" y2="484.5056911686249" stroke="rgba(255,255,255,.13)" stroke-width="1"/><line x1="1088" y1="525.5161699276666" x2="1264" y2="525.5161699276666" stroke="rgba(255,255,255,.13)" stroke-width="1"/><line x1="1088" y1="566.5266486867083" x2="1264" y2="566.5266486867083" stroke="rgba(255,255,255,.13)" stroke-width="1"/><line x1="1088" y1="607.53712744575" x2="1264" y2="607.53712744575" stroke="rgba(255,255,255,.13)" stroke-width="1"/><line x1="1088" y1="648.5476062047917" x2="1264" y2="648.5476062047917" stroke="rgba(255,255,255,.13)" stroke-width="1"/><line x1="1088" y1="689.5580849638334" x2="1264" y2="689.5580849638334" stroke="rgba(255,255,255,.13)" stroke-width="1"/><line x1="1088" y1="730.568563722875" x2="1264" y2="730.568563722875" stroke="rgba(255,255,255,.13)" stroke-width="1"/><line x1="1088" y1="771.5790424819166" x2="1264" y2="771.5790424819166" stroke="rgba(255,255,255,.13)" stroke-width="1"/><line x1="1088" y1="812.5895212409583" x2="1264" y2="812.5895212409583" stroke="rgba(255,255,255,.13)" stroke-width="1"/><rect x="1336" y="419.2165384913795" width="176" height="434.38346150862054" fill="none" stroke="rgba(255,255,255,.34)" stroke-width="2"/><line x1="1336" y1="458.70594408307227" x2="1512" y2="458.70594408307227" stroke="rgba(255,255,255,.13)" stroke-width="1"/><line x1="1336" y1="498.19534967476505" x2="1512" y2="498.19534967476505" stroke="rgba(255,255,255,.13)" stroke-width="1"/><line x1="1336" y1="537.6847552664578" x2="1512" y2="537.6847552664578" stroke="rgba(255,255,255,.13)" stroke-width="1"/><line x1="1336" y1="577.1741608581506" x2="1512" y2="577.1741608581506" stroke="rgba(255,255,255,.13)" stroke-width="1"/><line x1="1336" y1="616.6635664498434" x2="1512" y2="616.6635664498434" stroke="rgba(255,255,255,.13)" stroke-width="1"/><line x1="1336" y1="656.1529720415361" x2="1512" y2="656.1529720415361" stroke="rgba(255,255,255,.13)" stroke-width="1"/><line x1="1336" y1="695.642377633229" x2="1512" y2="695.642377633229" stroke="rgba(255,255,255,.13)" stroke-width="1"/><line x1="1336" y1="735.1317832249217" x2="1512" y2="735.1317832249217" stroke="rgba(255,255,255,.13)" stroke-width="1"/><line x1="1336" y1="774.6211888166144" x2="1512" y2="774.6211888166144" stroke="rgba(255,255,255,.13)" stroke-width="1"/><line x1="1336" y1="814.1105944083073" x2="1512" y2="814.1105944083073" stroke="rgba(255,255,255,.13)" stroke-width="1"/><line x1="0" y1="853.6" x2="1600" y2="853.6" stroke="rgba(245,158,11,.55)" stroke-width="3"/>
  <rect width="1600" height="1067" fill="url(#vculture03)"/>
  <rect width="1600" height="1067" filter="url(#nculture03)" opacity="0.045"/>
  <g font-family="Manrope, ui-sans-serif, system-ui, sans-serif">
    <rect x="88" y="962.315" width="4" height="46" fill="#F59E0B"/>
    <text x="106" y="984.315" fill="#ffffff" font-size="30" font-weight="700" letter-spacing="0.5">On site</text>
    
  </g>
</svg>