<svg xmlns="http://www.w3.org/2000/svg" width="1400" height="1050" viewBox="0 0 1400 1050" role="img" aria-label="Universal Structural Steel">
  <defs>
    <linearGradient id="geqrollforming" x1="0" y1="0" x2="0.35" y2="1">
      <stop offset="0%" stop-color="#3b4c66"/>
      <stop offset="55%" stop-color="#1e293b"/>
      <stop offset="100%" stop-color="#0c111c"/>
    </linearGradient>
    <radialGradient id="veqrollforming" cx="50%" cy="38%" r="78%">
      <stop offset="0%" stop-color="#fff" stop-opacity="0.14"/>
      <stop offset="100%" stop-color="#000" stop-opacity="0.5"/>
    </radialGradient>
    <pattern id="peqrollforming" width="72" height="72" patternUnits="userSpaceOnUse">
      <path d="M72 0 L0 0 0 72" fill="none" stroke="rgba(255,255,255,.055)" stroke-width="1"/>
    </pattern>
    <filter id="neqrollforming"><feTurbulence type="fractalNoise" baseFrequency="0.9" numOctaves="3"/><feColorMatrix type="saturate" values="0"/></filter>
  </defs>
  <rect width="1400" height="1050" fill="url(#geqrollforming)"/>
  <rect width="1400" height="1050" fill="url(#peqrollforming)"/>
  <rect x="84" y="429.98090006411076" width="154" height="410.01909993588924" fill="none" stroke="rgba(255,255,255,.34)" stroke-width="2"/><line x1="84" y1="470.9828100576997" x2="238" y2="470.9828100576997" stroke="rgba(255,255,255,.13)" stroke-width="1"/><line x1="84" y1="511.9847200512886" x2="238" y2="511.9847200512886" stroke="rgba(255,255,255,.13)" stroke-width="1"/><line x1="84" y1="552.9866300448775" x2="238" y2="552.9866300448775" stroke="rgba(255,255,255,.13)" stroke-width="1"/><line x1="84" y1="593.9885400384665" x2="238" y2="593.9885400384665" stroke="rgba(255,255,255,.13)" stroke-width="1"/><line x1="84" y1="634.9904500320554" x2="238" y2="634.9904500320554" stroke="rgba(255,255,255,.13)" stroke-width="1"/><line x1="84" y1="675.9923600256443" x2="238" y2="675.9923600256443" stroke="rgba(255,255,255,.13)" stroke-width="1"/><line x1="84" y1="716.9942700192332" x2="238" y2="716.9942700192332" stroke="rgba(255,255,255,.13)" stroke-width="1"/><line x1="84" y1="757.9961800128222" x2="238" y2="757.9961800128222" stroke="rgba(255,255,255,.13)" stroke-width="1"/><line x1="84" y1="798.9980900064111" x2="238" y2="798.9980900064111" stroke="rgba(255,255,255,.13)" stroke-width="1"/><rect x="301" y="470.7000351743772" width="154" height="369.2999648256228" fill="none" stroke="rgba(255,255,255,.34)" stroke-width="2"/><line x1="301" y1="511.7333645994464" x2="455" y2="511.7333645994464" stroke="rgba(255,255,255,.13)" stroke-width="1"/><line x1="301" y1="552.7666940245156" x2="455" y2="552.7666940245156" stroke="rgba(255,255,255,.13)" stroke-width="1"/><line x1="301" y1="593.8000234495848" x2="455" y2="593.8000234495848" stroke="rgba(255,255,255,.13)" stroke-width="1"/><line x1="301" y1="634.833352874654" x2="455" y2="634.833352874654" stroke="rgba(255,255,255,.13)" stroke-width="1"/><line x1="301" y1="675.8666822997232" x2="455" y2="675.8666822997232" stroke="rgba(255,255,255,.13)" stroke-width="1"/><line x1="301" y1="716.9000117247924" x2="455" y2="716.9000117247924" stroke="rgba(255,255,255,.13)" stroke-width="1"/><line x1="301" y1="757.9333411498616" x2="455" y2="757.9333411498616" stroke="rgba(255,255,255,.13)" stroke-width="1"/><line x1="301" y1="798.9666705749307" x2="455" y2="798.9666705749307" stroke="rgba(255,255,255,.13)" stroke-width="1"/><rect x="518" y="442.5001902272924" width="154" height="397.4998097727076" fill="none" stroke="rgba(255,255,255,.34)" stroke-width="2"/><line x1="518" y1="482.2501712045632" x2="672" y2="482.2501712045632" stroke="rgba(255,255,255,.13)" stroke-width="1"/><line x1="518" y1="522.000152181834" x2="672" y2="522.000152181834" stroke="rgba(255,255,255,.13)" stroke-width="1"/><line x1="518" y1="561.7501331591047" x2="672" y2="561.7501331591047" stroke="rgba(255,255,255,.13)" stroke-width="1"/><line x1="518" y1="601.5001141363755" x2="672" y2="601.5001141363755" stroke="rgba(255,255,255,.13)" stroke-width="1"/><line x1="518" y1="641.2500951136462" x2="672" y2="641.2500951136462" stroke="rgba(255,255,255,.13)" stroke-width="1"/><line x1="518" y1="681.000076090917" x2="672" y2="681.000076090917" stroke="rgba(255,255,255,.13)" stroke-width="1"/><line x1="518" y1="720.7500570681877" x2="672" y2="720.7500570681877" stroke="rgba(255,255,255,.13)" stroke-width="1"/><line x1="518" y1="760.5000380454585" x2="672" y2="760.5000380454585" stroke="rgba(255,255,255,.13)" stroke-width="1"/><line x1="518" y1="800.2500190227292" x2="672" y2="800.2500190227292" stroke="rgba(255,255,255,.13)" stroke-width="1"/><rect x="734.9999999999999" y="523.1641698349267" width="154" height="316.8358301650733" fill="none" stroke="rgba(255,255,255,.34)" stroke-width="2"/><line x1="734.9999999999999" y1="562.7686486055609" x2="888.9999999999999" y2="562.7686486055609" stroke="rgba(255,255,255,.13)" stroke-width="1"/><line x1="734.9999999999999" y1="602.373127376195" x2="888.9999999999999" y2="602.373127376195" stroke="rgba(255,255,255,.13)" stroke-width="1"/><line x1="734.9999999999999" y1="641.9776061468292" x2="888.9999999999999" y2="641.9776061468292" stroke="rgba(255,255,255,.13)" stroke-width="1"/><line x1="734.9999999999999" y1="681.5820849174634" x2="888.9999999999999" y2="681.5820849174634" stroke="rgba(255,255,255,.13)" stroke-width="1"/><line x1="734.9999999999999" y1="721.1865636880975" x2="888.9999999999999" y2="721.1865636880975" stroke="rgba(255,255,255,.13)" stroke-width="1"/><line x1="734.9999999999999" y1="760.7910424587317" x2="888.9999999999999" y2="760.7910424587317" stroke="rgba(255,255,255,.13)" stroke-width="1"/><line x1="734.9999999999999" y1="800.3955212293658" x2="888.9999999999999" y2="800.3955212293658" stroke="rgba(255,255,255,.13)" stroke-width="1"/><rect x="951.9999999999999" y="343.6183769116178" width="154" height="496.3816230883822" fill="none" stroke="rgba(255,255,255,.34)" stroke-width="2"/><line x1="951.9999999999999" y1="384.983512168983" x2="1106" y2="384.983512168983" stroke="rgba(255,255,255,.13)" stroke-width="1"/><line x1="951.9999999999999" y1="426.3486474263482" x2="1106" y2="426.3486474263482" stroke="rgba(255,255,255,.13)" stroke-width="1"/><line x1="951.9999999999999" y1="467.71378268371336" x2="1106" y2="467.71378268371336" stroke="rgba(255,255,255,.13)" stroke-width="1"/><line x1="951.9999999999999" y1="509.07891794107854" x2="1106" y2="509.07891794107854" stroke="rgba(255,255,255,.13)" stroke-width="1"/><line x1="951.9999999999999" y1="550.4440531984437" x2="1106" y2="550.4440531984437" stroke="rgba(255,255,255,.13)" stroke-width="1"/><line x1="951.9999999999999" y1="591.8091884558089" x2="1106" y2="591.8091884558089" stroke="rgba(255,255,255,.13)" stroke-width="1"/><line x1="951.9999999999999" y1="633.1743237131741" x2="1106" y2="633.1743237131741" stroke="rgba(255,255,255,.13)" stroke-width="1"/><line x1="951.9999999999999" y1="674.5394589705393" x2="1106" y2="674.5394589705393" stroke="rgba(255,255,255,.13)" stroke-width="1"/><line x1="951.9999999999999" y1="715.9045942279045" x2="1106" y2="715.9045942279045" stroke="rgba(255,255,255,.13)" stroke-width="1"/><line x1="951.9999999999999" y1="757.2697294852696" x2="1106" y2="757.2697294852696" stroke="rgba(255,255,255,.13)" stroke-width="1"/><line x1="951.9999999999999" y1="798.6348647426348" x2="1106" y2="798.6348647426348" stroke="rgba(255,255,255,.13)" stroke-width="1"/><rect x="1169" y="427.9947110032663" width="154" height="412.0052889967337" fill="none" stroke="rgba(255,255,255,.34)" stroke-width="2"/><line x1="1169" y1="469.19523990293965" x2="1323" y2="469.19523990293965" stroke="rgba(255,255,255,.13)" stroke-width="1"/><line x1="1169" y1="510.395768802613" x2="1323" y2="510.395768802613" stroke="rgba(255,255,255,.13)" stroke-width="1"/><line x1="1169" y1="551.5962977022864" x2="1323" y2="551.5962977022864" stroke="rgba(255,255,255,.13)" stroke-width="1"/><line x1="1169" y1="592.7968266019598" x2="1323" y2="592.7968266019598" stroke="rgba(255,255,255,.13)" stroke-width="1"/><line x1="1169" y1="633.9973555016331" x2="1323" y2="633.9973555016331" stroke="rgba(255,255,255,.13)" stroke-width="1"/><line x1="1169" y1="675.1978844013065" x2="1323" y2="675.1978844013065" stroke="rgba(255,255,255,.13)" stroke-width="1"/><line x1="1169" y1="716.3984133009799" x2="1323" y2="716.3984133009799" stroke="rgba(255,255,255,.13)" stroke-width="1"/><line x1="1169" y1="757.5989422006533" x2="1323" y2="757.5989422006533" stroke="rgba(255,255,255,.13)" stroke-width="1"/><line x1="1169" y1="798.7994711003266" x2="1323" y2="798.7994711003266" stroke="rgba(255,255,255,.13)" stroke-width="1"/><line x1="0" y1="840" x2="1400" y2="840" stroke="rgba(215,0,18,.55)" stroke-width="3"/>
  <rect width="1400" height="1050" fill="url(#veqrollforming)"/>
  <rect width="1400" height="1050" filter="url(#neqrollforming)" opacity="0.045"/>
  
</svg>